<!--?xml version="1.0" encoding="iso-8859-1"?-->
<!-- Generator: Adobe Illustrator 16.0.0, SVG Export Plug-In . SVG Version: 6.00 Build 0)  -->

<svg version="1.1" id="レイヤー_1" xmlns="http://www.w3.org/2000/svg" xmlns:xlink="http://www.w3.org/1999/xlink" x="0px" y="0px" width="1200px" height="150px" viewBox="0 0 1200 150" style="" xml:space="preserve">
<g>
	<path style="fill:none;stroke:#000000;stroke-miterlimit:10;" d="M357.413,76.582c0,10.657-7.849,15.266-15.625,16.562
		c-6.409,1.08-13.033-0.287-16.129-1.224c-0.72-0.216-0.792-0.721-0.216-1.152l3.313-2.52c0.36-0.289,0.792-0.289,1.224,0
		c3.096,2.016,7.776,4.608,11.953,3.384c6.697-2.017,7.993-9.288,7.633-16.057c-0.432-7.345-7.128-11.881-16.85-11.521l-1.944,0.072
		c-0.072,2.88-0.216,6.121-0.504,9.433c-0.864,10.081-10.009,18.002-16.706,17.858c-5.688-0.145-9.865-4.896-9.865-9.938
		c0-7.2,4.032-11.376,9.865-14.977c2.736-1.729,5.833-3.024,9.073-3.889l-0.072-6.409h-10.441c-1.44,0-2.376,0.432-3.528,1.296
		c-0.936,0.648-1.656,1.584-2.088,2.16c-0.288,0.36-0.504,0.576-0.864,0.576c-0.288,0-0.504-0.288-0.36-0.936l1.296-5.688
		c0.144-0.504,0.432-0.792,0.936-0.792h14.978v-2.232c0-0.648-0.288-1.08-0.792-1.584c-0.648-0.504-1.08-0.792-2.304-1.224
		c-0.216-0.072-0.432-0.216-0.432-0.432c0-0.216,0.216-0.36,0.432-0.36h14.473c0.288,0,0.432,0.144,0.432,0.36
		c0,0.144-0.144,0.288-0.432,0.36c-0.792,0.288-1.584,0.72-2.232,1.296c-0.576,0.504-0.864,0.936-0.864,1.584v2.232h7.128
		c0.432,0,0.792-0.144,1.08-0.432l0.864-0.72c0.36-0.36,0.72-0.36,1.152-0.216l6.337,2.16c0.576,0.216,0.792,0.72,0.288,1.152
		c-0.72,0.648-1.873,1.44-3.384,1.44h-13.465c0,1.296,0.072,2.953,0,4.969c2.448-0.144,4.896-0.144,7.417,0.072
		C347.333,61.965,357.413,65.998,357.413,76.582z M322.706,73.414l-0.072-7.705c-2.808,1.008-5.473,2.448-7.777,4.249
		c-3.24,2.52-6.552,7.921-4.752,14.978c0.936,3.6,2.953,4.752,7.273,3.168C321.626,86.592,322.778,79.246,322.706,73.414z
		 M363.03,59.661c-3.601-0.144-7.417-1.8-9.505-3.6c-2.52-2.161-2.736-2.953-4.824-6.049c-1.152-1.728-3.384-3.168-6.049-3.744
		c-0.792-0.216-0.792-0.576,0-0.648c3.457,0,7.057,1.008,9.361,2.736c2.664,2.016,3.888,3.601,5.185,5.329
		c2.088,2.808,3.6,4.681,5.833,5.473C363.894,59.445,363.894,59.661,363.03,59.661z" class="AdJqyqRt_0"></path>
	<path style="fill:none;stroke:#000000;stroke-miterlimit:10;" d="M435.39,52.533c0.576,0.216,0.72,0.72,0.288,1.152
		c-0.72,0.648-1.872,1.368-3.384,1.368h-16.057c1.368,6.048,3.024,12.025,2.664,20.018c-0.504,11.161-10.873,18.794-23.402,18.794
		c-6.552,0-13.609-1.944-18.217-4.464c-0.648-0.361-0.576-0.938,0.144-1.152l5.4-1.656c0.432-0.145,0.864-0.072,1.152,0.287
		c2.52,2.809,6.264,5.257,11.665,5.257c8.209,0,14.474-7.632,14.978-14.688c0.072-1.297,0.144-2.521,0.144-3.745
		c-1.8,2.665-5.112,4.393-9.649,4.393c-6.048,0-10.945-4.032-10.945-9.073s4.896-9.073,10.945-9.073
		c3.816,0,6.769,1.224,8.641,3.168c-0.432-2.664-1.008-5.328-1.584-8.064h-25.778c-1.44,0-2.376,0.432-3.528,1.296
		c-0.936,0.648-1.656,1.584-2.088,2.16c-0.288,0.36-0.504,0.576-0.864,0.576s-0.504-0.288-0.36-0.936l1.296-5.688
		c0.144-0.504,0.432-0.792,0.936-0.792h29.595c-0.072-0.432-0.216-0.864-0.288-1.296c-0.36-1.656-1.728-2.376-3.168-2.88
		c-0.216-0.072-0.36-0.216-0.36-0.36c0-0.216,0.144-0.432,0.432-0.432h14.473c0.216,0,0.36,0.216,0.36,0.432
		c0,0.144-0.144,0.288-0.36,0.36c-1.224,0.432-3.384,1.08-3.096,2.88l0.216,1.296h10.441c0.432,0,0.72-0.144,1.008-0.432l0.864-0.72
		c0.36-0.36,0.72-0.36,1.152-0.216L435.39,52.533z M410.547,69.742c0-0.937-0.144-1.8-0.216-2.665
		c-0.864-2.736-3.456-4.752-6.553-4.752c-3.744,0-6.84,3.024-6.84,6.697s3.096,6.697,6.84,6.697
		C407.379,75.719,410.188,73.054,410.547,69.742z" class="AdJqyqRt_1"></path>
	<path style="fill:none;stroke:#000000;stroke-miterlimit:10;" d="M507.39,52.533c0.576,0.216,0.72,0.72,0.288,1.152
		c-0.72,0.648-1.872,1.368-3.384,1.368h-16.057c1.368,6.048,3.024,12.025,2.664,20.018c-0.504,11.161-10.873,18.794-23.402,18.794
		c-6.552,0-13.609-1.944-18.217-4.464c-0.648-0.361-0.576-0.938,0.144-1.152l5.4-1.656c0.432-0.145,0.864-0.072,1.152,0.287
		c2.52,2.809,6.264,5.257,11.665,5.257c8.209,0,14.474-7.632,14.978-14.688c0.072-1.297,0.144-2.521,0.144-3.745
		c-1.8,2.665-5.112,4.393-9.649,4.393c-6.048,0-10.945-4.032-10.945-9.073s4.896-9.073,10.945-9.073
		c3.816,0,6.769,1.224,8.641,3.168c-0.432-2.664-1.008-5.328-1.584-8.064h-25.778c-1.44,0-2.376,0.432-3.528,1.296
		c-0.936,0.648-1.656,1.584-2.088,2.16c-0.288,0.36-0.504,0.576-0.864,0.576s-0.504-0.288-0.36-0.936l1.296-5.688
		c0.144-0.504,0.432-0.792,0.936-0.792h29.595c-0.072-0.432-0.216-0.864-0.288-1.296c-0.36-1.656-1.728-2.376-3.168-2.88
		c-0.216-0.072-0.36-0.216-0.36-0.36c0-0.216,0.144-0.432,0.432-0.432h14.473c0.216,0,0.36,0.216,0.36,0.432
		c0,0.144-0.144,0.288-0.36,0.36c-1.224,0.432-3.384,1.08-3.096,2.88l0.216,1.296h10.441c0.432,0,0.72-0.144,1.008-0.432l0.864-0.72
		c0.36-0.36,0.72-0.36,1.152-0.216L507.39,52.533z M482.547,69.742c0-0.937-0.144-1.8-0.216-2.665
		c-0.864-2.736-3.456-4.752-6.553-4.752c-3.744,0-6.84,3.024-6.84,6.697s3.096,6.697,6.84,6.697
		C479.379,75.719,482.188,73.054,482.547,69.742z" class="AdJqyqRt_2"></path>
	<path style="fill:none;stroke:#000000;stroke-miterlimit:10;" d="M578.31,72.982c0,13.682-10.873,19.874-23.186,19.874
		c-6.337,0-7.633-0.288-9.289-0.721c-0.72-0.144-0.72-0.72-0.072-1.151l4.824-2.881c0.433-0.288,0.792-0.216,1.152,0.145
		c1.08,1.08,2.593,3.168,6.984,2.447c5.545-0.936,12.529-6.48,12.529-16.633c0-10.441-5.185-15.049-11.665-16.85
		c-0.072,0.144-0.072,0.288-0.144,0.504c-1.729,8.137-4.465,17.138-10.369,24.338c-7.057,8.641-13.897,9.649-19.01,9.506
		c-4.32-0.145-10.585-4.896-10.297-13.754c0.288-8.208,4.824-14.689,11.449-18.866c-0.504-2.52-0.864-5.041-1.152-7.345
		c0,0-0.288-1.08-0.864-1.584c-0.648-0.576-1.44-1.008-2.232-1.296c-0.144-0.072-0.432-0.216-0.432-0.432
		c0-0.144,0.144-0.36,0.432-0.36h13.321c0.288,0,0.433,0.216,0.433,0.36c0,0.216-0.288,0.36-0.433,0.432
		c-1.656,0.576-3.168,1.512-2.952,3.096c0.072,1.44,0.216,2.736,0.36,4.032c3.96-1.44,8.28-2.16,12.673-2.16
		c1.008,0,2.017,0,3.024,0.072l0.216-1.944c0.145-0.792-0.144-1.296-0.576-1.8c-0.647-0.648-1.296-0.936-2.016-1.296
		c0,0-0.36-0.144-0.36-0.432c0-0.144,0.072-0.36,0.36-0.36h12.097c0.288,0,0.433,0.144,0.433,0.36c0,0.144-0.145,0.36-0.433,0.504
		c-0.792,0.432-1.296,0.504-1.872,1.296c-0.144,0.216-0.576,1.944-1.152,4.68C569.885,56.997,578.31,62.83,578.31,72.982z
		 M541.299,84.575c-3.889-5.761-6.841-13.033-8.785-20.306c-0.432,0.432-0.792,0.936-1.224,1.368
		c-7.057,8.137-5.761,23.401-0.36,24.194C534.818,90.408,538.346,88.104,541.299,84.575z M553.035,56.133
		c-1.008-0.072-1.944-0.072-2.952-0.072c-4.752,0-8.425,0.936-11.881,3.24c1.225,6.696,3.456,12.313,6.769,19.874
		c2.664-4.608,4.681-9.865,5.977-13.969C551.739,62.613,552.459,59.229,553.035,56.133z" class="AdJqyqRt_3"></path>
	<path style="fill:none;stroke:#000000;stroke-miterlimit:10;" d="M649.302,69.166c0.432,0.144,0.647,0.72,0.288,1.08
		c-0.721,0.648-1.944,1.512-3.528,1.512h-21.098l1.872,15.553c0.288,2.448,1.224,3.169,1.728,3.601
		c0.648,0.576,2.089,1.008,2.952,1.368c0.217,0,0.36,0.144,0.36,0.359c0,0.217-0.144,0.36-0.432,0.36h-15.554
		c-0.216,0-0.432-0.144-0.432-0.36c0-0.216,0.216-0.359,0.432-0.359c0.792-0.36,1.584-0.792,2.305-1.368
		c0.504-0.432,0.72-0.576,0.72-1.297V89.4l-2.088-17.642h-18.002c-1.44,0-2.376,0.432-3.601,1.296
		c-1.08,0.864-1.944,2.016-2.231,2.521c-0.072,0.144-0.288,0.216-0.433,0.216h-0.216c-0.288,0-0.504-0.432-0.433-0.792l1.368-6.193
		c0.072-0.216,0.288-0.432,0.505-0.432h22.609l-1.08-9.289h-13.609c-1.368,0-2.304,0.432-3.528,1.296
		c-1.08,0.864-1.943,2.016-2.304,2.52c-0.072,0.144-0.288,0.216-0.433,0.216h-0.216c-0.216,0-0.432-0.432-0.359-0.792l1.368-6.192
		c0.071-0.216,0.288-0.432,0.504-0.432h18.146l-0.288-2.52c-0.288-2.376-1.225-3.168-1.729-3.601
		c-0.647-0.576-2.016-1.008-2.88-1.296c-0.216-0.072-0.36-0.216-0.36-0.36c0-0.216,0.145-0.432,0.36-0.432h15.553
		c0.288,0,0.433,0.216,0.433,0.432c0,0.144-0.145,0.288-0.36,0.36c-1.584,0.504-3.168,1.944-2.952,4.176l0.36,3.24h13.321
		c0.071,0,0.216-0.072,0.288-0.144l1.439-1.224c0.145-0.072,0.36-0.216,0.504-0.144l6.769,2.376
		c0.433,0.144,0.648,0.648,0.288,1.008c-0.647,0.648-1.872,1.512-3.456,1.512h-18.722l1.08,9.289h15.697
		c0.072,0,0.216-0.072,0.288-0.144l1.44-1.224c0.144-0.072,0.36-0.216,0.504-0.144L649.302,69.166z" class="AdJqyqRt_4"></path>
	<path style="fill:none;stroke:#000000;stroke-miterlimit:10;" d="M666.145,74.71l1.368-7.345c0.072-0.288,0.288-0.504,0.576-0.504
		h41.907c0.288,0,0.505-0.144,0.721-0.288l1.152-1.008c0.216-0.216,0.504-0.216,0.792-0.072l6.696,3.456
		c0.36,0.144,0.504,0.504,0.216,0.792c-0.432,0.648-1.44,1.656-3.24,1.656h-42.556c-2.809,0-4.896,1.44-6.408,3.601
		c-0.216,0.216-0.433,0.36-0.792,0.36C666.289,75.358,666.073,75.143,666.145,74.71z" class="AdJqyqRt_5"></path>
	<path style="fill:none;stroke:#000000;stroke-miterlimit:10;" d="M743.545,92.063c-0.792-0.216-0.863-0.72-0.288-1.224
		c1.009-0.721,2.521-1.729,3.385-2.377c0.36-0.359,0.72-0.287,1.152,0c2.376,1.656,7.992,3.241,11.377,3.241
		c6.912,0,12.097-4.465,14.401-8.497c3.096-5.4,5.977-15.121,6.984-21.746c0.576-2.665,0.936-3.745,2.736-6.193
		c0.432-0.576,0.216-1.008-0.288-0.936c-10.657,1.152-16.634-0.144-28.442-1.44c-13.394-1.512-11.665,14.545,0.864,20.81
		c0.575,0.288,0.504,0.936-0.288,0.72c-9.073-2.448-18.074-7.777-18.074-16.345c0-6.481,4.32-12.169,19.442-10.009
		c9.288,1.296,26.786,4.896,40.035,1.08c0.504-0.144,0.576,0.432,0.144,0.648c-4.608,2.376-6.12,4.248-7.2,11.665
		c-1.944,12.961-13.609,32.258-31.683,32.258C752.042,93.72,746.138,92.568,743.545,92.063z" class="AdJqyqRt_6"></path>
	<path style="fill:none;stroke:#000000;stroke-miterlimit:10;" d="M810.145,74.71l1.368-7.345c0.072-0.288,0.288-0.504,0.576-0.504
		h41.907c0.288,0,0.505-0.144,0.721-0.288l1.152-1.008c0.216-0.216,0.504-0.216,0.792-0.072l6.696,3.456
		c0.36,0.144,0.504,0.504,0.216,0.792c-0.432,0.648-1.44,1.656-3.24,1.656h-42.556c-2.809,0-4.896,1.44-6.408,3.601
		c-0.216,0.216-0.433,0.36-0.792,0.36C810.289,75.358,810.073,75.143,810.145,74.71z" class="AdJqyqRt_7"></path>
	<path style="fill:none;stroke:#000000;stroke-miterlimit:10;" d="M886.825,93c-0.288,0-0.432-0.144-0.432-0.36
		c0-0.216,0.144-0.288,0.359-0.359c1.152-0.505,3.169-1.729,3.169-3.817V52.964c0-2.448-2.017-3.456-3.169-3.96
		c-0.216-0.072-0.359-0.144-0.359-0.36c0-0.216,0.144-0.36,0.432-0.36h14.474c0.216,0,0.359,0.144,0.359,0.36
		c0,0.216-0.144,0.288-0.359,0.36c-1.225,0.504-3.169,1.512-3.169,3.96v9.217c0,0.144,0.145,0.36,0.288,0.288
		c5.041-0.432,8.641-0.36,13.97,1.44c6.265,2.16,7.488,5.472,14.185,7.057c3.097,0.72,5.688,0.936,8.569,0.36
		c0.864-0.144,0.936,0.216,0.288,0.72c-2.593,2.232-6.697,4.608-12.169,3.888c-5.545-0.72-8.354-3.672-13.682-7.417
		c-2.448-1.729-6.049-4.104-11.161-3.816c-0.216,0-0.288,0.144-0.288,0.288v23.473c0,2.018,1.944,3.313,3.169,3.817
		c0.288,0.071,0.359,0.144,0.359,0.359c0,0.217-0.144,0.36-0.359,0.36H886.825z M912.964,54.765
		c1.296-0.576,2.664-1.224,3.168-2.304c0.936-1.8,0.792-1.872,1.872-4.176c0.937-1.944,3.816-3.24,6.553-3.384
		c0.432,0,0.432,0.288,0,0.576c-0.864,0.576-2.017,1.296-2.736,2.736c-0.36,0.648-1.296,2.953-1.584,3.672
		c-1.225,2.809-2.305,3.168-7.129,3.601C912.531,55.557,912.243,54.98,912.964,54.765z M919.3,54.765
		c1.296-0.576,2.664-1.224,3.169-2.304c0.936-1.8,0.792-1.872,1.872-4.176c0.936-1.944,3.816-3.24,6.552-3.384
		c0.433,0,0.433,0.288,0,0.576c-0.863,0.576-2.016,1.296-2.735,2.736c-0.36,0.648-1.297,2.953-1.585,3.672
		c-1.224,2.809-2.304,3.168-7.128,3.601C918.868,55.557,918.58,54.98,919.3,54.765z" class="AdJqyqRt_8"></path>
</g>
<style data-made-with="vivus-instant">.AdJqyqRt_0{stroke-dasharray:453 455;stroke-dashoffset:454;animation:AdJqyqRt_draw_0 6200ms linear 0ms infinite,AdJqyqRt_fade 6200ms linear 0ms infinite;}.AdJqyqRt_1{stroke-dasharray:366 368;stroke-dashoffset:367;animation:AdJqyqRt_draw_1 6200ms linear 0ms infinite,AdJqyqRt_fade 6200ms linear 0ms infinite;}.AdJqyqRt_2{stroke-dasharray:366 368;stroke-dashoffset:367;animation:AdJqyqRt_draw_2 6200ms linear 0ms infinite,AdJqyqRt_fade 6200ms linear 0ms infinite;}.AdJqyqRt_3{stroke-dasharray:430 432;stroke-dashoffset:431;animation:AdJqyqRt_draw_3 6200ms linear 0ms infinite,AdJqyqRt_fade 6200ms linear 0ms infinite;}.AdJqyqRt_4{stroke-dasharray:323 325;stroke-dashoffset:324;animation:AdJqyqRt_draw_4 6200ms linear 0ms infinite,AdJqyqRt_fade 6200ms linear 0ms infinite;}.AdJqyqRt_5{stroke-dasharray:118 120;stroke-dashoffset:119;animation:AdJqyqRt_draw_5 6200ms linear 0ms infinite,AdJqyqRt_fade 6200ms linear 0ms infinite;}.AdJqyqRt_6{stroke-dasharray:301 303;stroke-dashoffset:302;animation:AdJqyqRt_draw_6 6200ms linear 0ms infinite,AdJqyqRt_fade 6200ms linear 0ms infinite;}.AdJqyqRt_7{stroke-dasharray:118 120;stroke-dashoffset:119;animation:AdJqyqRt_draw_7 6200ms linear 0ms infinite,AdJqyqRt_fade 6200ms linear 0ms infinite;}.AdJqyqRt_8{stroke-dasharray:276 278;stroke-dashoffset:277;animation:AdJqyqRt_draw_8 6200ms linear 0ms infinite,AdJqyqRt_fade 6200ms linear 0ms infinite;}@keyframes AdJqyqRt_draw{100%{stroke-dashoffset:0;}}@keyframes AdJqyqRt_fade{0%{stroke-opacity:1;}93.54838709677419%{stroke-opacity:1;}100%{stroke-opacity:0;}}@keyframes AdJqyqRt_draw_0{12.903225806451612%{stroke-dashoffset: 454}34.40860215053764%{ stroke-dashoffset: 0;}100%{ stroke-dashoffset: 0;}}@keyframes AdJqyqRt_draw_1{14.24731182795699%{stroke-dashoffset: 367}35.752688172043015%{ stroke-dashoffset: 0;}100%{ stroke-dashoffset: 0;}}@keyframes AdJqyqRt_draw_2{15.591397849462366%{stroke-dashoffset: 367}37.096774193548384%{ stroke-dashoffset: 0;}100%{ stroke-dashoffset: 0;}}@keyframes AdJqyqRt_draw_3{16.93548387096774%{stroke-dashoffset: 431}38.44086021505377%{ stroke-dashoffset: 0;}100%{ stroke-dashoffset: 0;}}@keyframes AdJqyqRt_draw_4{18.279569892473116%{stroke-dashoffset: 324}39.78494623655914%{ stroke-dashoffset: 0;}100%{ stroke-dashoffset: 0;}}@keyframes AdJqyqRt_draw_5{19.623655913978492%{stroke-dashoffset: 119}41.12903225806452%{ stroke-dashoffset: 0;}100%{ stroke-dashoffset: 0;}}@keyframes AdJqyqRt_draw_6{20.967741935483872%{stroke-dashoffset: 302}42.473118279569896%{ stroke-dashoffset: 0;}100%{ stroke-dashoffset: 0;}}@keyframes AdJqyqRt_draw_7{22.311827956989248%{stroke-dashoffset: 119}43.81720430107527%{ stroke-dashoffset: 0;}100%{ stroke-dashoffset: 0;}}@keyframes AdJqyqRt_draw_8{23.65591397849462%{stroke-dashoffset: 277}45.16129032258064%{ stroke-dashoffset: 0;}100%{ stroke-dashoffset: 0;}}</style></svg>
