<!--?xml version="1.0" encoding="utf-8"?-->
<!-- Generator: Adobe Illustrator 18.1.1, SVG Export Plug-In . SVG Version: 6.00 Build 0)  -->

<svg version="1.1" id="_x32_" xmlns="http://www.w3.org/2000/svg" xmlns:xlink="http://www.w3.org/1999/xlink" x="0px" y="0px" viewBox="0 0 512 512" style="width: 48px; height: 48px; opacity: 1;" xml:space="preserve">
<style type="text/css">
	.st0{fill:#4B4B4B;}
</style>
<g>
	<path class="st0" d="M455.104,56.125H143.749c-7.639,0-13.838,6.198-13.838,13.838S136.11,83.8,143.749,83.8h120.16l13.604,23.819
		H126.849c-10.45,0-19.766-4.18-26.64-11.027c-6.838-6.864-11.017-16.18-11.026-26.63c0.009-10.45,4.189-19.766,11.026-26.63
		c6.874-6.847,16.189-11.027,26.64-11.036H438.96V0.009L126.849,0C88.21,0.018,56.905,31.314,56.896,69.963v372.084
		c0.009,38.639,31.314,69.944,69.954,69.954h328.255V107.62h-71.99L369.511,83.8h85.593V56.125z M389.124,251.383V139.916h33.693
		v339.787H165.281V139.916h118.394v111.466l52.728-27.675L389.124,251.383z" style="fill: rgb(85, 85, 85);"></path>
</g>
</svg>
