<?xml version="1.0" encoding="UTF-8" standalone="no" ?>
<!DOCTYPE svg PUBLIC "-//W3C//DTD SVG 1.1//EN" "http://www.w3.org/Graphics/SVG/1.1/DTD/svg11.dtd">
<svg xmlns="http://www.w3.org/2000/svg" xmlns:xlink="http://www.w3.org/1999/xlink" version="1.1" width="190.49" height="7" viewBox="0 0 190.49 7" xml:space="preserve">
<desc>Created with Fabric.js 5.3.0</desc>
<defs>
</defs>
<g transform="matrix(1 0 0 1 95.245 3.5)" id="8XTl_4WHPQf8LZ5_Mg5LE"  >
<path style="stroke: rgb(0,0,0); stroke-width: 3; stroke-dasharray: none; stroke-linecap: butt; stroke-dashoffset: 0; stroke-linejoin: miter; stroke-miterlimit: 10; fill: none; fill-rule: nonzero; opacity: 1;"  transform=" translate(0, 0)" d="M -95.245 -2 C -89.245 -2 -89.245 2 -83.345 2 C -77.445 2 -77.345 -2 -71.445 -2 C -65.54499999999999 -2 -65.445 2 -59.535 2 C -53.625 2 -53.584999999999994 -2 -47.635 -2 C -41.684999999999995 -2 -41.635 2 -35.735 2 C -29.835 2 -29.735 -2 -23.825 -2 C -17.915 -2 -17.825 2 -11.915 2 C -6.004999999999999 2 -5.914999999999999 -2 -0.014999999999998792 -2 C 5.885000000000002 -2 5.985000000000001 2 11.895000000000001 2 C 17.805 2 17.895000000000003 -2 23.795 -2 C 29.695 -2 29.745 2 35.695 2 C 41.645 2 41.695 -2 47.605000000000004 -2 C 53.515 -2 53.605000000000004 2 59.515 2 C 65.425 2 65.515 -2 71.415 -2 C 77.31500000000001 -2 77.415 2 83.33500000000001 2 C 89.25500000000001 2 89.33500000000001 -2 95.245 -2" stroke-linecap="round" />
</g>
</svg>